# xmcd
#
# Track frame offsets: 
#        150
#        14612
#        31882
#        46862
#        63032
#        82430
#        97417
#        112000
#        127520
#        141742
#        159692
#
# Disc length: 2342 seconds
#
# Revision: 4
# Processed by: cddbd v1.5.2PL0 Copyright (c) Steve Scherf et al.
# Submitted via: ExactAudioCopy v1.0b3
#
DISCID=9b09240b
DTITLE=Montgomery Gentry - Tattoos and Scars
DYEAR=1999
DGENRE=Country
TTITLE0=Hillbilly Shoes
TTITLE1=Trying To Survive
TTITLE2=Lonely And Gone
TTITLE3=Self Made Man
TTITLE4=Daddy Won't Sell The Farm
TTITLE5=If A Broken Heart Could Kill
TTITLE6=I've Loved A Lot More Than I've Hurt
TTITLE7=Didn't Your Mama Tell Ya'
TTITLE8=Trouble Is
TTITLE9=Tattoos and Scars
TTITLE10=All Night Long
EXTD=YEAR: 1999
EXTT0=
EXTT1=
EXTT2=
EXTT3=
EXTT4=
EXTT5=
EXTT6=
EXTT7=
EXTT8=
EXTT9=
EXTT10=
PLAYORDER=
